<?xml version="1.0" encoding="UTF-8" standalone="no"?>
<svg
   id="svg"
   version="1.1"
   style="display:block"
   viewBox="0 0 512 275.51718"
   sodipodi:docname="sardine_logo_single.svg"
   width="512"
   height="275.51718"
   inkscape:version="1.2 (dc2aeda, 2022-05-15)"
   xmlns:inkscape="http://www.inkscape.org/namespaces/inkscape"
   xmlns:sodipodi="http://sodipodi.sourceforge.net/DTD/sodipodi-0.dtd"
   xmlns="http://www.w3.org/2000/svg"
   xmlns:svg="http://www.w3.org/2000/svg">
  <defs
     id="defs9" />
  <sodipodi:namedview
     id="namedview7"
     pagecolor="#505050"
     bordercolor="#eeeeee"
     borderopacity="1"
     inkscape:showpageshadow="0"
     inkscape:pageopacity="0"
     inkscape:pagecheckerboard="0"
     inkscape:deskcolor="#505050"
     showgrid="false"
     inkscape:zoom="1.0656165"
     inkscape:cx="249.62077"
     inkscape:cy="168.4471"
     inkscape:window-width="1440"
     inkscape:window-height="847"
     inkscape:window-x="0"
     inkscape:window-y="25"
     inkscape:window-maximized="0"
     inkscape:current-layer="svg" />
  <path
     d="m 511.99941,123.49837 c -0.12826,5.22985 -0.12826,5.22985 -0.55249,9.95522 -0.59906,2.01256 -1.19811,4.02513 -1.81532,6.09869 -4.32929,7.19923 -9.13109,13.63978 -14.6015,19.73104 -4.11054,4.01477 -8.31047,7.74819 -12.62832,11.47988 -1.8753,-0.71032 -1.8753,-0.71032 -3.78849,-1.43498 0.85951,-0.88791 1.71903,-1.7758 2.60459,-2.6906 4.83877,-5.84938 8.63198,-12.15701 12.54939,-18.83418 2.20155,-4.24197 4.32943,-8.53694 6.31416,-12.91487 1.47023,-6.05364 1.47023,-6.05364 1.89425,-13.72205 -0.20837,-3.04845 -0.41674,-6.09689 -0.63142,-9.23771 -1.71537,-4.54039 -1.71537,-4.54039 -4.1042,-8.6996 -1.56276,-2.33814 -3.12551,-4.67626 -4.73562,-7.08524 -1.66694,-1.42064 -3.33388,-2.84128 -5.05133,-4.30496 -2.25113,7.67405 -3.7312,15.03073 -5.05133,22.95977 2.50041,0.47354 5.00082,0.94708 7.57699,1.43498 0.41674,1.42064 0.83347,2.84127 1.26284,4.30495 -4.07653,13.51073 -8.61812,26.14348 -15.08493,38.41389 -3.96253,7.07937 -8.12662,13.83075 -12.69737,20.42052 -1.10208,1.59635 -2.20414,3.19272 -3.3396,4.83745 -6.55127,9.09866 -13.32946,17.06691 -21.36455,24.49006 -7.5261,6.56037 -15.09697,12.58162 -23.28347,18.027 -3.77841,1.93888 -7.56777,3.85036 -11.36548,5.73994 -1.65555,0.89714 -3.31109,1.79429 -5.01681,2.71861 -14.22187,7.57868 -28.68347,13.35967 -43.91979,17.73973 -19.88311,5.16873 -40.44295,8.09317 -60.82125,8.53283 -32.66624,0.33458 -32.66624,0.33458 -45.01799,-1.90583 -10.59996,-2.65864 -20.80572,-6.68293 -30.86046,-11.30051 -2.53632,-1.3496 -5.06267,-2.72378 -7.57698,-4.12559 -8.06424,-4.38409 -16.44945,-7.54905 -24.94093,-10.67269 -1.34625,-0.50199 -2.6925,-1.00398 -4.07954,-1.52117 -5.78819,-2.0826 -11.52244,-3.79893 -17.48727,-5.08761 -2.60783,-0.0582 -2.60783,-0.0582 -5.26837,-0.11767 -1.38044,0.46429 -2.76087,0.9286 -4.18313,1.40696 -6.75369,4.20301 -13.29354,8.7334 -19.81067,13.39132 -1.3316,0.93506 -2.66321,1.87014 -4.03514,2.83354 -7.14349,5.08094 -13.80299,10.21011 -19.95867,16.80782 -1.93514,2.50602 -3.8134,5.07177 -5.60382,7.71305 -1.48462,2.19015 -2.96923,4.38028 -4.49884,6.63681 -0.41673,-0.94709 -0.83347,-1.89418 -1.26283,-2.86997 5.99846,-16.68171 5.99846,-16.68171 8.83982,-21.52478 0.41673,-1.89418 0.83347,-3.78836 1.26283,-5.73994 2.10971,-1.62783 4.21944,-3.25563 6.39309,-4.93276 2.55529,-2.09708 5.05634,-4.28209 7.49806,-6.54713 3.28818,-4.13812 6.00965,-8.341 8.83983,-12.91486 -2.08367,0.94708 -4.16734,1.89418 -6.31416,2.86996 -2.66562,2.73398 -5.2383,5.58736 -7.73485,8.52024 -1.30555,1.52237 -2.6111,3.04474 -3.9562,4.61324 -1.71417,2.02274 -1.71417,2.02274 -3.46293,4.08635 -1.25021,1.42064 -2.50041,2.84127 -3.7885,4.30496 -0.41673,-0.94709 -0.83347,-1.89418 -1.26283,-2.86998 1.66441,-9.64572 3.36027,-18.70846 6.23523,-27.98221 2.21547,-5.49271 4.51025,-10.21626 7.65592,-15.06735 -1.66694,-0.94708 -3.33387,-1.89417 -5.05133,-2.86996 -2.08367,-0.47355 -4.16735,-0.9471 -6.31416,-1.43499 -0.70324,1.43728 -1.40648,2.87456 -2.13103,4.3554 -2.95117,5.84029 -5.95714,11.55725 -9.23446,17.16938 -5.44595,6.18838 -5.44595,6.18838 -10.10265,10.0449 -1.66694,0.94709 -3.33388,1.89418 -5.05133,2.86997 -1.2502,-0.47355 -2.5004,-0.9471 -3.7885,-1.43499 1.66695,-1.89418 3.33389,-3.78836 5.05134,-5.73993 -2.91715,1.42063 -5.83429,2.84127 -8.83982,4.30495 -1.25021,-0.47355 -2.50042,-0.94709 -3.7885,-1.43499 1.97948,-1.50943 3.95897,-3.01884 5.99845,-4.57402 2.18786,-1.80539 4.37572,-3.61077 6.62987,-5.47088 1.66693,-2.36772 3.33387,-4.73545 5.05132,-7.17492 0.41674,-2.36772 0.83347,-4.73545 1.26284,-7.17493 0.83346,0 1.66693,0 2.52566,0 0.83347,-2.36773 1.66693,-4.73545 2.52566,-7.17492 1.63902,-2.90323 3.3145,-5.78107 5.05133,-8.60991 -6.22434,6.84468 -11.94863,14.15056 -17.67965,21.52477 -0.41673,0.9471 -0.83347,1.89419 -1.26282,2.86997 -1.66695,0 -3.33389,0 -5.05134,0 0,0.9471 0,1.89418 0,2.86998 -1.66693,1.42063 -3.33387,2.84126 -5.05132,4.30495 -0.41674,1.89418 -0.83347,3.78837 -1.26284,5.73995 -0.83347,0.47354 -1.66693,0.94708 -2.52566,1.43497 -0.41674,1.42064 -0.83347,2.84127 -1.26284,4.30496 0.83347,0.47354 1.66695,0.94709 2.52568,1.43499 -1.66695,0 -3.33388,0 -5.05134,0 -0.92246,-4.68613 -0.92246,-4.68613 -1.26282,-11.47988 1.37624,-5.80287 2.8585,-11.23753 4.65669,-16.86108 0.89044,-2.89308 1.78088,-5.78613 2.69831,-8.76687 1.39311,-4.47378 2.78994,-8.94578 4.19916,-13.41304 1.28122,-4.1751 2.4459,-8.39572 3.59982,-12.61849 0.72124,-6.51481 0.34471,-11.99583 0,-18.6548 -0.73665,-7.29451 -0.73665,-7.29451 -2.52566,-14.34985 -1.94888,-5.83835 -4.09149,-11.50379 -6.31416,-17.21982 -3.19577,-2.18066 -3.19577,-2.18066 -7.577,-4.30496 -5.73499,-1.9051 -5.73499,-1.9051 -12.62832,-2.86997 -8.2442,-0.47422 -16.40861,-0.56105 -24.60549,0.65021 -3.58925,0.71021 -7.172,1.46254 -10.7538,2.21976 -2.5004,0 -5.00082,0 -7.577,0 0.83348,-1.42063 1.66695,-2.84127 2.52568,-4.30495 3.54842,-1.17878 7.10097,-2.34155 10.65513,-3.49779 1.97786,-0.64926 3.95572,-1.29854 5.99352,-1.9675 5.84533,-1.64303 11.45627,-2.55172 17.4478,-3.14463 -12.91703,0.85089 -25.27466,3.98237 -37.88495,7.17493 0.41673,-0.94709 0.83347,-1.89418 1.26282,-2.86997 7.91796,-2.36773 15.83592,-4.73546 23.99381,-7.17493 -3.85479,0.68071 -7.70958,1.36145 -11.68119,2.0628 -2.16833,0.38289 -4.33665,0.7658 -6.57068,1.16031 C 5.1363,100.34292 5.1363,100.34292 0,101.88395 0.83347,99.98978 1.66694,98.0956 2.52566,96.14401 c 4.57777,-3.22872 4.57777,-3.22872 8.83982,-5.73994 -2.5004,0 -5.0008,0 -7.57698,0 0.41673,-1.42064 0.83347,-2.84127 1.26282,-4.30496 6.09136,-2.27429 11.96681,-4.19011 18.31107,-5.2915 9.91407,-0.6401 19.75323,-1.03471 29.67655,-0.44844 5.61368,1.08631 10.90829,2.61701 16.41681,4.30495 1.25021,0 2.50042,0 3.7885,0 2.5004,-4.73544 5.00082,-9.4709 7.577,-14.34985 1.66693,-0.47354 3.33387,-0.94709 5.05132,-1.43498 0.41674,1.42064 0.83347,2.84128 1.26283,4.30496 -0.98975,2.36772 -1.97949,4.73545 -2.99922,7.17492 -1.82881,4.63893 -3.4935,9.18964 -4.9724,13.99111 -1.06392,7.47344 -1.36547,14.65841 -1.2727,22.22546 0.29362,6.02058 0.29362,6.02058 2.61445,14.00792 2.37556,5.99866 4.93459,11.57752 7.8927,17.21982 0,0.94709 0,1.89418 0,2.86997 0.83347,0 1.66695,0 2.52566,0 0.47697,1.21716 0.95394,2.43431 1.44536,3.68836 2.27266,5.10677 2.27266,5.10677 5.75181,9.8431 1.24531,1.63152 2.49062,3.26302 3.77368,4.94398 1.2551,1.65371 2.51018,3.30741 3.8033,5.01124 0.95882,1.24674 1.91763,2.49349 2.9055,3.77804 0,0.94709 0,1.89418 0,2.86997 1.66694,0.94709 3.33388,1.89418 5.05133,2.86997 3.77402,2.69926 7.53436,5.42322 11.28656,8.16149 9.52327,6.87512 19.10737,13.21126 29.12407,19.10323 -1.01581,-1.42063 -2.03159,-2.84127 -3.07817,-4.30496 -1.06788,-1.89418 -2.13575,-3.78836 -3.23599,-5.73994 -1.02606,-6.36775 -1.02606,-6.36775 -1.26284,-11.47988 0.83347,0.47355 1.66694,0.94709 2.52566,1.43499 0.54696,2.04215 1.09394,4.08432 1.65747,6.18837 1.05486,3.32961 1.05486,3.32961 2.13103,6.72649 1.87531,2.13096 1.87531,2.13096 3.7885,4.30496 0,0.9471 0,1.89418 0,2.86997 1.66693,0.94709 3.33387,1.89419 5.05132,2.86996 2.08368,1.42065 4.16735,2.84127 6.31416,4.30497 0,-0.9471 0,-1.89419 0,-2.86998 -1.2502,-0.47354 -2.5004,-0.94709 -3.7885,-1.43499 -0.50789,-2.17534 -0.50789,-2.17534 -1.02604,-4.39463 -1.44667,-5.45075 -3.23792,-10.50632 -5.28812,-15.69515 0.41674,-1.42063 0.83348,-2.84127 1.26284,-4.30496 4.52544,8.85629 8.16231,17.69327 11.36548,27.26472 1.25021,0 2.50042,0 3.7885,0 -1.52368,-3.68477 -1.52368,-3.68477 -3.07815,-7.44398 -1.06788,-2.75249 -2.13577,-5.50497 -3.23601,-8.34086 -0.41673,-2.36773 -0.83347,-4.73545 -1.26283,-7.17492 0.83347,0.47355 1.66694,0.94709 2.52567,1.43498 0.41672,-0.9471 0.83346,-1.89418 1.26282,-2.86996 0.83348,1.89417 1.66695,3.78836 2.52567,5.73994 1.5296,7.157 2.72242,14.25637 3.78849,21.52476 0.83348,-0.47354 1.66695,-0.94708 2.52567,-1.43497 -0.85953,-2.75249 -1.71903,-5.50497 -2.60459,-8.34085 -0.80743,-2.93007 -1.61485,-5.86013 -2.44674,-8.87898 0.41674,-1.42063 0.83347,-2.84127 1.26284,-4.30495 0.75532,2.16054 1.51066,4.3211 2.28887,6.54712 2.11967,5.98715 4.30176,11.92315 6.55095,17.84763 3.33708,0.97521 6.6794,1.92726 10.02373,2.86996 2.79098,0.7991 2.79098,0.7991 5.63833,1.61437 6.68188,1.65804 6.68188,1.65804 17.17157,1.25561 0,-14.20635 0,-28.41271 0,-43.04956 0.83347,0 1.66693,0 2.52566,0 0.41674,1.42064 0.83347,2.84127 1.26284,4.30496 0.12388,5.69064 0.1755,11.35037 0.15784,17.04044 0.003,3.07434 0.007,6.14869 0.01,9.3162 -0.16772,8.08301 -0.16772,8.08301 -1.43056,15.25793 3.33388,0 6.66775,0 10.10266,0 0.0342,-5.76991 0.0592,-11.53956 0.0789,-17.30951 0.01,-1.62689 0.0213,-3.25377 0.0321,-4.92997 0.0206,-8.02618 -0.0915,-15.77403 -1.37383,-23.68005 0.83347,0.47355 1.66695,0.94709 2.52568,1.43499 0.41673,1.42063 0.83346,2.84127 1.26282,4.30495 0.0909,6.55499 0.11719,13.08735 0.0789,19.64137 -0.009,2.74276 -0.009,2.74276 -0.0174,5.54094 -0.0149,4.52079 -0.0375,9.04154 -0.0616,13.56229 15.43847,0.4799 30.38849,0.0491 45.65433,-2.71862 25.67947,-5.51637 51.25763,-12.14282 75.50724,-23.4026 15.35291,-7.34796 29.77449,-15.67018 43.564,-26.38467 4.37394,-3.3662 8.63952,-6.44241 13.33373,-9.19848 3.96846,-1.56832 7.9709,-3.02874 11.99691,-4.39464 7.16014,-2.44217 14.02354,-5.01344 20.83672,-8.52022 1.33531,-10.22013 2.61409,-20.14643 2.28889,-30.49343 -0.33861,-1.7758 -0.6772,-3.5516 -1.02606,-5.38121 -1.2502,-1.89417 -2.5004,-3.78836 -3.78849,-5.73993 0.41673,-0.94709 0.83347,-1.89417 1.26283,-2.86997 2.65019,3.71628 5.16304,7.56127 7.57699,11.47989 0.41674,2.84127 0.83347,5.68253 1.26283,8.6099 -0.90982,6.34769 -2.38701,12.41209 -3.78849,18.65481 0.41673,0.47354 0.83347,0.94709 1.26283,1.43498 0.41673,-2.36772 0.83347,-4.73544 1.26283,-7.17493 0.49487,-2.5453 0.98975,-5.09059 1.49961,-7.71303 0.33859,-2.6637 0.6772,-5.32739 1.02605,-8.07179 -0.20836,-1.80541 -0.41673,-3.61079 -0.63141,-5.47089 -0.93765,-2.26413 -0.93765,-2.26413 -1.89425,-4.57401 -3.21045,-4.42872 -3.21045,-4.42872 -7.57699,-8.60991 -5.57713,-3.46207 -5.57713,-3.46207 -11.60227,-6.27807 -1.99739,-0.98779 -3.99479,-1.97557 -6.05271,-2.99329 -2.51262,-1.09321 -2.51262,-1.09321 -5.07599,-2.20853 -1.25021,0 -2.50041,0 -3.7885,0 0.92951,1.00629 1.85903,2.01256 2.81671,3.04935 5.6395,6.23053 10.66152,12.04546 15.09972,19.46198 0.75532,1.56861 1.51066,3.13724 2.28888,4.75339 -0.41673,-2.36773 -0.83347,-4.73546 -1.26283,-7.17492 1.2502,1.42063 2.50041,2.84127 3.78849,4.30496 0,5.20899 0,10.41798 0,15.78483 -0.41673,-1.89418 -0.83346,-3.78836 -1.26283,-5.73994 -0.83347,0 -1.66694,0 -2.52566,0 0.41673,0.94709 0.83347,1.89418 1.26283,2.86997 0.17595,6.22215 0.0537,12.42813 0,18.6548 -0.83347,0.94709 -1.66694,1.89418 -2.52566,2.86998 -0.62511,-2.13096 -0.62511,-2.13096 -1.26283,-4.30496 -0.28719,-3.91196 -0.5172,-7.82954 -0.71035,-11.74894 -0.10583,-2.09211 -0.21162,-4.18422 -0.32064,-6.33972 -0.0765,-1.60747 -0.15302,-3.21493 -0.23185,-4.8711 -1.2502,0.47354 -2.5004,0.94709 -3.78849,1.43498 0.20836,1.86458 0.41673,3.72917 0.63141,5.65026 0.58976,6.78826 0.72636,13.36479 0.63117,20.17948 -0.83347,0 -1.66694,0 -2.52567,0 -0.83346,-7.57672 -1.66693,-15.15344 -2.52566,-22.95977 -0.83347,-0.47355 -1.66694,-0.94709 -2.52566,-1.43498 0,5.68254 0,11.36508 0,17.21982 -1.25021,-2.84127 -1.25021,-2.84127 -2.52567,-5.73995 -0.0996,-4.30345 -0.11138,-8.61177 0,-12.91486 -1.2502,0.47355 -2.5004,0.94709 -3.78849,1.43499 0,7.57672 0,15.15344 0,22.95976 -1.87531,1.42063 -1.87531,1.42063 -3.7885,2.86997 0.026,-2.16056 0.052,-4.3211 0.0789,-6.54711 0.0658,-8.2063 0.0658,-8.2063 -1.34176,-17.84764 -0.41674,8.99736 -0.83347,17.99472 -1.26284,27.26472 -0.83346,-0.94709 -1.66693,-1.89417 -2.52566,-2.86997 -0.96815,-9.62614 -1.38463,-19.01184 -1.26283,-28.6997 1.2502,-0.9471 2.50041,-1.89418 3.78849,-2.86997 3.22039,-0.6479 6.46072,-1.17283 9.70803,-1.61436 1.72391,-0.24048 3.44782,-0.48095 5.22398,-0.7287 1.32346,-0.17389 2.64691,-0.34777 4.01047,-0.52691 0.62511,-2.13096 0.62511,-2.13096 1.26283,-4.30497 -2.5004,-0.71031 -2.5004,-0.71031 -5.05132,-1.43497 0.41673,0.94709 0.83347,1.89418 1.26283,2.86996 -1.2502,0 -2.50041,0 -3.7885,0 0.41674,0.94709 0.83347,1.89419 1.26284,2.86998 -1.25021,0 -2.50041,0 -3.7885,0 -2.15289,-3.79189 -4.25589,-7.62077 -6.31416,-11.47988 0,-0.9471 0,-1.89418 0,-2.86997 -1.8753,-0.71033 -1.8753,-0.71033 -3.7885,-1.43499 0,-0.94709 0,-1.89418 0,-2.86997 -6.51145,4.22168 -6.51145,4.22168 -12.62831,10.04489 -0.41673,0.94709 -0.83347,1.89418 -1.26283,2.86998 -0.46915,10.30642 0.7672,20.17472 1.96332,30.3589 0.62991,6.17848 0.75765,12.21625 0.56234,18.4306 -0.83346,-0.47355 -1.66693,-0.9471 -2.52566,-1.43499 -2.62389,-21.652 -4.37033,-42.65841 -3.78849,-64.57434 -2.11771,15.22134 -1.29988,30.40764 -0.63143,45.74015 0.2061,4.36501 0.41504,8.72987 0.63143,13.09425 -0.41674,0 -0.83347,0 -1.26284,0 -3.73021,-16.95491 -3.73021,-16.95491 -4.02528,-25.56068 0.1172,-2.26413 0.1172,-2.26413 0.23678,-4.57401 -0.83347,0 -1.66693,0 -2.52566,0 0.41674,1.42063 0.83347,2.84126 1.26284,4.30495 0.4616,4.17984 0.87599,8.36649 1.26282,12.55611 0.72483,7.7988 1.50364,15.56239 2.52567,23.31852 -1.2502,0 -2.50041,0 -3.78849,0 -2.85128,-16.02625 -5.41386,-31.77107 -5.52489,-48.16169 0.2099,-11.42156 1.27759,-22.38357 2.99921,-33.63247 -2.07579,9.92647 -3.61079,19.73935 -4.17325,29.93288 -0.24284,19.92842 1.76886,39.34189 4.17325,59.03621 -0.83346,0 -1.66693,0 -2.52566,0 -6.0876,-31.66723 -6.0876,-31.66723 -6.58546,-47.21998 0.5428,-15.16207 2.49107,-29.80611 5.32264,-44.61907 0,-0.47355 0,-0.9471 0,-1.43499 -2.23029,7.27236 -3.93244,13.89618 -5.05134,21.52478 -0.10166,4.15039 -0.13591,8.30324 -0.12337,12.45523 0.003,2.36772 0.008,4.73544 0.0126,7.17492 0.01,2.46021 0.0213,4.92043 0.0321,7.45519 0.007,2.49351 0.0114,4.98703 0.0174,7.55609 0.0149,6.15106 0.0356,12.30201 0.0616,18.45302 -0.83347,-1.42064 -1.66695,-2.84127 -2.52568,-4.30496 -0.62509,-2.13094 -0.62509,-2.13094 -1.26282,-4.30495 -1.00923,-15.32258 -1.9447,-30.79068 -0.63141,-46.11011 0.84256,-5.33575 1.72915,-10.42387 3.15707,-15.59426 1.70187,-4.4675 1.70187,-4.4675 3.7885,-8.60991 3.30281,-4.36924 6.66222,-8.68497 10.10265,-12.91486 1.2502,0 2.50041,0 3.7885,0 -0.83348,2.36773 -1.66694,4.73545 -2.52567,7.17493 0.83347,0 1.66695,0 2.52567,0 0.96369,2.63409 1.92739,5.26818 2.92029,7.9821 2.36215,6.44353 4.74708,12.8742 7.18236,19.28261 -1.66694,2.36773 -3.33387,4.73545 -5.05132,7.17493 0.41672,0.47354 0.83346,0.94709 1.26283,1.43499 2.08367,-1.89418 4.16734,-3.78836 6.31416,-5.73995 -0.41674,-1.89417 -0.83348,-3.78835 -1.26284,-5.73994 -1.2502,-2.66369 -2.5004,-5.32738 -3.78849,-8.07179 -1.35479,-2.99793 -2.62181,-6.04962 -3.7885,-9.14803 -1.10498,-8.25116 -1.10498,-8.25116 -1.26283,-14.34985 2.06703,-2.90513 4.17457,-5.77344 6.31416,-8.60991 0.83347,-0.47355 1.66694,-0.9471 2.52566,-1.43499 -1.17207,0 -2.34413,0 -3.55171,0 -2.61761,0.71031 -2.61761,0.71031 -5.28811,1.43499 -4.96794,3.37422 -9.46684,7.24624 -13.89115,11.47988 -3.75242,4.3219 -3.75242,4.3219 -6.31416,8.60991 -1.25021,2.36772 -2.5004,4.73545 -3.7885,7.17493 -0.83347,0 -1.66693,0 -2.52566,0 -0.16766,1.40029 -0.33534,2.80057 -0.50809,4.24329 -0.33454,2.73861 -0.33454,2.73861 -0.67581,5.53254 -0.21976,1.81464 -0.43953,3.62928 -0.66595,5.49891 -0.67581,4.81505 -0.67581,4.81505 -1.93865,9.12001 -0.49062,10.54689 -0.45731,21.02182 0,31.56967 1.21648,8.30748 3.07789,16.2849 5.05134,24.39475 0.76045,3.85055 1.49879,7.70687 2.20995,11.56956 0.52091,2.81167 1.04183,5.62335 1.57853,8.52023 -1.8753,-0.71032 -1.8753,-0.71032 -3.78848,-1.43499 -1.45253,-6.48578 -2.89861,-12.97329 -4.34099,-19.46198 -0.61655,-2.74833 -0.61655,-2.74833 -1.24558,-5.55216 -0.39475,-1.78042 -0.7895,-3.56085 -1.19622,-5.39521 -0.36374,-1.6307 -0.72745,-3.26141 -1.10222,-4.94153 -1.60642,-8.12393 -2.23834,-15.67268 -2.45443,-24.02163 0.0411,-5.82336 0.4404,-10.81242 1.34176,-16.59201 1.18369,-4.85715 2.54378,-9.65823 3.94634,-14.43954 -1.46842,-5.56932 -1.46842,-5.56932 -3.78848,-11.47989 -2.08368,-1.89418 -4.16735,-3.78836 -6.31417,-5.73994 -2.08367,0 -4.16734,0 -6.31416,0 -0.41673,0.94708 -0.83347,1.89418 -1.26283,2.86997 0.41673,-2.84127 0.83347,-5.68254 1.26283,-8.6099 -6.66776,-1.89419 -13.3355,-3.78836 -20.20531,-5.73994 0,3.31481 0,6.62963 0,10.0449 3.75061,0.7103 3.75061,0.7103 7.57699,1.43497 0,-2.36773 0,-4.73545 0,-7.17492 0.83348,0.94709 1.66694,1.89418 2.52567,2.86996 0.41673,1.89419 0.83347,3.78837 1.26283,5.73995 3.75061,1.42063 3.75061,1.42063 7.57699,2.86997 0.41673,0.94709 0.83347,1.89418 1.26283,2.86997 1.66694,0.47354 3.33388,0.94709 5.05133,1.43499 -0.41674,1.89418 -0.83347,3.78836 -1.26284,5.73993 -1.53671,0.7991 -3.07341,1.59822 -4.65669,2.42155 -1.79717,1.09506 -3.59434,2.19014 -5.44596,3.31839 -3.68649,3.70526 -3.68649,3.70526 -6.31416,7.17493 0.41674,6.15609 0.83348,12.31218 1.26283,18.65482 3.82977,-4.07044 3.82977,-4.07044 6.31416,-8.60992 0.83347,0 1.66694,0 2.52566,0 -1.25019,-7.10318 -1.25019,-7.10318 -2.52566,-14.34985 1.25021,1.89418 2.50041,3.78836 3.7885,5.73994 0.83347,0.94708 1.66694,1.89417 2.52566,2.86997 0.41674,-2.36773 0.83347,-4.73545 1.26284,-7.17493 1.66693,1.42063 3.33387,2.84127 5.05132,4.30496 0,-4.26191 0,-8.52382 0,-12.91487 0.83347,0.47355 1.66694,0.94709 2.52566,1.43499 -0.0293,2.68403 -0.0586,5.36807 -0.0888,8.13345 -0.0238,3.59679 -0.0468,7.1936 -0.0691,10.79042 -0.0317,2.64009 -0.0317,2.64009 -0.0641,5.33354 -0.0552,11.87732 0.82453,22.8927 2.74764,34.57698 1.58389,7.18326 3.35291,14.27684 5.14506,21.39584 0.5787,2.9051 0.5787,2.9051 1.1691,5.86888 -0.62509,2.84127 -0.62509,2.84127 -1.26282,5.73994 -5.58661,-18.14015 -9.90675,-35.77103 -12.23369,-54.82092 -0.41716,-7.27616 0.0539,-14.01116 0.86819,-21.23329 -1.25019,2.84127 -1.25019,2.84127 -2.52566,5.73993 0.28979,16.94667 1.84332,33.84911 5.05133,50.40387 1.52685,7.17041 3.23792,14.26208 5.05133,21.3454 -1.25021,-1.42064 -2.50041,-2.84128 -3.7885,-4.30496 -1.34176,-4.52358 -1.34176,-4.52358 -2.52566,-9.95521 -0.42488,-1.91823 -0.84975,-3.83647 -1.2875,-5.81281 -0.4086,-1.89974 -0.81718,-3.79946 -1.23816,-5.75676 -0.36954,-1.64816 -0.73907,-3.29632 -1.11978,-4.99442 -1.44466,-6.44624 -2.78331,-12.87648 -3.93156,-19.40033 -0.0484,-3.34785 -0.0577,-6.69724 0,-10.04489 -0.83346,0 -1.66693,0 -2.52566,0 2.48271,21.36869 4.97731,42.33915 10.10266,63.13935 -1.25021,0 -2.50041,0 -3.7885,0 -3.7885,-21.52479 -7.57698,-43.04956 -11.36548,-64.57434 0.67624,10.14337 2.19312,19.70246 4.26699,29.56855 0.78433,4.8711 0.78433,4.8711 0.89779,10.50453 -0.0373,1.45577 -0.0749,2.91156 -0.1134,4.41146 -2.68737,-6.10744 -4.16879,-11.89446 -5.76167,-18.47543 -0.8229,-3.36846 -0.8229,-3.36846 -1.66241,-6.80498 -1.41575,-6.28926 -1.41575,-6.28926 -2.67858,-14.89917 -0.35787,4.26466 -0.35787,4.26466 0,10.0449 1.2828,6.11023 2.65392,12.089 4.18313,18.11667 0.38987,1.60561 0.77974,3.21123 1.18144,4.8655 1.07851,4.32426 2.27172,8.61101 3.47525,12.89246 1.25021,2.36772 2.50041,4.73545 3.7885,7.17492 1.52608,5.68765 2.61053,11.41943 3.7885,17.21983 -1.25021,-0.47355 -2.50042,-0.94709 -3.7885,-1.43499 -1.66759,-5.28765 -3.32329,-10.57946 -4.9724,-15.87453 -0.47127,-1.49 -0.94254,-2.98 -1.42809,-4.51516 -1.9262,-6.21139 -3.63984,-12.21608 -4.65423,-18.70806 -0.15382,-1.95615 -0.15382,-1.95615 -0.31077,-3.95181 -0.83347,0 -1.66694,0 -2.52566,0 -0.90143,-4.28936 -1.73611,-8.59713 -2.52567,-12.91486 0,-2.36773 0,-4.73546 0,-7.17493 -0.83346,0 -1.66693,0 -2.52566,0 0.25883,1.31704 0.51766,2.63409 0.78433,3.99104 1.77252,9.17456 3.44319,18.21753 4.267,27.57864 0.83346,-0.9471 1.66693,-1.89418 2.52566,-2.86998 0.54696,3.32961 0.54696,3.32961 1.10497,6.72649 1.23103,7.67751 1.23103,7.67751 3.94636,14.79829 0.49429,4.77421 0.92548,9.55802 1.26283,14.34986 -1.2502,-1.42064 -2.50041,-2.84128 -3.78849,-4.30496 -1.18712,-3.48242 -2.25328,-7.01936 -3.23601,-10.58302 -1.7173,-6.16427 -3.48789,-12.10575 -5.60382,-18.11668 -0.98504,-4.19649 -1.89936,-8.4148 -2.76245,-12.64581 -0.69103,-3.2991 -0.69103,-3.2991 -1.39602,-6.66483 -0.29464,-2.15131 -0.58928,-4.30261 -0.89286,-6.5191 0.48837,-6.56394 0.48837,-6.56394 1.26283,-11.47988 0.41674,0.94709 0.83348,1.89417 1.26284,2.86997 0.83346,-0.47354 1.66693,-0.9471 2.52566,-1.43499 1.2502,-2.84127 1.2502,-2.84127 2.52566,-5.73994 0.31574,-6.51733 0.31574,-6.51733 0,-12.91486 -0.41673,-1.42064 -0.83347,-2.84127 -1.26283,-4.30496 -2.5004,2.84127 -2.5004,2.84127 -5.05133,5.73994 -0.83347,0 -1.66694,0 -2.52566,0 0,2.84127 0,5.68254 0,8.60992 -0.41673,-0.9471 -0.83347,-1.89419 -1.26283,-2.86999 -1.2502,0.47355 -2.50041,0.9471 -3.78849,1.43499 -0.41674,0.94709 -0.83347,1.89419 -1.26284,2.86998 -1.2502,0.47354 -2.5004,0.94709 -3.7885,1.43498 0.27283,5.81739 0.27283,5.81739 1.26284,12.91487 1.66702,5.26849 3.3505,10.5303 5.05132,15.78483 0.27593,2.73028 0.27593,2.73028 0.55743,5.51573 0.54017,6.00599 0.54017,6.00599 2.3974,11.65364 0.6658,1.88124 1.33161,3.76249 2.01758,5.70072 2.77869,8.10954 5.04167,15.88491 6.39308,24.48442 -1.2502,-1.89417 -2.5004,-3.78836 -3.78849,-5.73993 -1.33906,-3.73269 -2.59422,-7.50491 -3.7885,-11.30051 -2.58641,-8.20697 -2.58641,-8.20697 -5.8406,-16.08192 -0.57301,-1.38179 -1.14602,-2.76359 -1.73639,-4.18725 -0.78927,-4.78141 -0.78927,-4.78141 -1.26283,-9.77583 -0.70635,-6.41436 -1.65254,-11.77875 -3.31494,-18.027 -0.57301,-1.71661 -1.14602,-3.43321 -1.73639,-5.20183 -2.50041,2.13096 -2.50041,2.13096 -5.05133,4.30496 0.0825,4.33804 0.0825,4.33804 1.26284,10.04489 1.71655,3.8036 3.43937,7.60371 5.19438,11.38459 3.86617,9.46861 6.76444,19.33392 9.75735,29.19508 2.17374,7.09386 4.36264,13.21911 7.77924,19.68971 -0.41674,0.94709 -0.83347,1.89418 -1.26283,2.86997 -3.97044,-6.76755 -7.19832,-13.34409 -10.0188,-20.83531 -1.71325,-4.89928 -3.40971,-9.80617 -5.09078,-14.71981 -3.14132,-9.16022 -6.47953,-18.21875 -9.83135,-27.28152 -0.78138,-2.2808 -0.78138,-2.2808 -1.57855,-4.60766 0,-0.94709 0,-1.89418 0,-2.86997 -2.5004,2.36773 -5.0008,4.73545 -7.57698,7.17492 -0.83347,0 -1.66694,0 -2.52566,0 0.54695,4.43948 0.54695,4.43948 1.10497,8.96866 1.34098,11.37478 2.33085,22.77132 3.30507,34.19301 0.86833,9.56334 1.99393,19.0668 3.16694,28.58759 -1.25021,0 -2.5004,0 -3.7885,0 -2.89228,-11.26823 -4.12284,-22.77843 -5.05132,-34.43964 -0.13912,-6.2266 -0.0554,-12.42392 0,-18.65481 -0.36713,-5.26681 -0.76968,-10.53132 -1.26284,-15.78484 -1.25019,0 -2.5004,0 -3.78848,0 0,4.26191 0,8.52381 0,12.91487 -0.41674,0 -0.83348,0 -1.26284,0 0,-2.36772 0,-4.73545 0,-7.17493 -1.66693,0.94709 -3.33388,1.89418 -5.05132,2.86998 0,1.89418 0,3.78836 0,5.73993 -1.25021,-0.47354 -2.50042,-0.94709 -3.7885,-1.43498 -0.83347,-0.94709 -1.66695,-1.89417 -2.52566,-2.86997 -0.41674,0.94708 -0.83348,1.89418 -1.26284,2.86997 -1.66693,0 -3.33388,0 -5.05132,0 0.61858,1.54826 1.23718,3.09654 1.87451,4.69173 0.94742,3.36013 0.94742,3.36013 1.91398,6.78815 0.28917,5.58209 0.37858,11.1801 0.3157,16.77139 -0.0488,4.5366 -0.0488,4.5366 -0.0986,9.16485 -0.23252,9.10948 -0.68205,18.09235 -1.47987,27.15821 -0.83347,-0.47354 -1.66694,-0.94709 -2.52567,-1.43497 -0.0475,-2.42143 -0.0475,-2.42143 -0.0958,-4.89179 -0.14646,-7.30833 -0.30143,-14.6164 -0.4566,-21.9245 -0.0496,-2.54069 -0.0993,-5.08138 -0.15045,-7.69905 -0.0793,-3.65564 -0.0793,-3.65564 -0.16032,-7.38512 -0.0463,-2.24691 -0.0925,-4.49383 -0.14028,-6.80882 -0.14592,-6.08569 -0.14592,-6.08569 -1.52212,-12.9951 -4.37572,1.42064 -4.37572,1.42064 -8.83982,2.86998 0.39067,1.42063 0.78137,2.84127 1.1839,4.30495 1.37312,5.87409 2.1034,11.15851 2.60459,17.21983 0.14633,6.93701 0.11922,13.86879 0.079,20.80728 -0.007,1.86458 -0.0114,3.72917 -0.0174,5.65026 -0.0148,4.57404 -0.0376,9.14804 -0.0616,13.72204 -0.83346,0 -1.66693,0 -2.52566,0 -1.1423,-20.07784 -1.85885,-40.16559 -2.52567,-60.26937 -1.35438,0.71031 -2.70877,1.42063 -4.1042,2.15246 -1.56276,0.71033 -3.12551,1.42065 -4.73562,2.15249 -1.66694,0 -3.33387,0 -5.05132,0 0.27347,2.61929 0.27347,2.61929 0.55248,5.29151 0.23441,2.5157 0.46882,5.03141 0.71034,7.62335 0.28651,2.81167 0.57301,5.62335 0.86821,8.52023 0.72265,10.47608 -0.38768,20.5737 -1.53414,30.9699 -0.29547,2.47222 -0.29547,2.47222 -0.59689,4.99442 -0.83347,0.47355 -1.66694,0.94709 -2.52567,1.43498 0.0439,-2.90416 0.0879,-5.80833 0.13319,-8.8005 0.0355,-3.82288 0.07,-7.64576 0.10351,-11.46867 0.0317,-1.91267 0.0635,-3.82535 0.0962,-5.79599 0.0126,-1.8498 0.0244,-3.69957 0.037,-5.6054 0.0198,-1.69834 0.0397,-3.39667 0.0601,-5.14648 -0.2129,-2.37477 -0.2129,-2.37477 -0.4301,-4.79753 -1.2157,-2.89613 -2.47395,-5.77009 -3.7885,-8.60991 0,-1.89418 0,-3.78836 0,-5.73994 -2.5004,0.94709 -5.0008,1.89418 -7.57698,2.86997 -0.83347,0.94709 -1.66695,1.89418 -2.52566,2.86997 -1.66695,-0.47354 -3.33388,-0.94709 -5.05134,-1.43499 0.41674,2.84127 0.83347,5.68254 1.26284,8.60992 -1.25021,-1.89419 -2.50041,-3.78837 -3.7885,-5.73994 -1.82973,0.31075 -3.65945,0.62152 -5.54463,0.94171 -10.03587,1.64217 -20.0135,3.18632 -30.13037,3.99105 -10.30731,-0.89117 -20.06506,-3.10261 -29.99225,-6.36775 -5.39561,-2.3428 -10.22863,-5.1926 -15.15399,-8.60991 -1.42112,-0.98038 -2.84226,-1.96079 -4.30646,-2.97087 -4.23507,-3.11423 -8.21858,-6.29709 -12.11036,-9.944 -4.65313,-6.70375 -7.75802,-13.31289 -11.20762,-20.89697 -0.88557,-2.10137 -1.77113,-4.20271 -2.68352,-6.36775 0.41673,-0.94709 0.83346,-1.89418 1.26282,-2.86996 4.32102,5.77908 8.3134,11.71409 12.23369,17.84762 3.95865,5.80427 7.53545,10.22777 12.47046,15.06734 7.41361,4.74469 14.59837,8.23798 22.67671,11.23885 7.14588,2.23 14.04343,3.70932 21.42375,4.46751 12.70809,0.37476 25.15456,-1.30259 37.65809,-3.77804 17.88797,-4.36962 35.32837,-11.32579 52.08687,-19.60773 11.46639,-6.01081 11.46639,-6.01081 22.03544,-13.75567 0.83347,0 1.66694,0 2.52566,0 -0.41674,-1.89419 -0.83347,-3.78837 -1.26283,-5.73995 1.66693,0.47354 3.33388,0.94709 5.05133,1.43499 2.26457,-1.85035 4.52668,-3.70461 6.78771,-5.56057 1.25998,-1.03218 2.51995,-2.06437 3.8181,-3.12783 3.27865,-2.64723 3.27865,-2.64723 5.81101,-5.66146 -0.83348,-0.94708 -1.66695,-1.89418 -2.52568,-2.86996 0.41674,-2.36773 0.83347,-4.73545 1.26284,-7.17493 0.41673,-2.84127 0.83347,-5.68254 1.26284,-8.60991 -1.25021,0.47354 -2.50042,0.94709 -3.7885,1.43498 -0.41674,-1.89417 -0.83347,-3.78835 -1.26284,-5.73994 1.15235,-3.87138 2.40521,-7.70742 3.7885,-11.47989 -0.83347,-0.47354 -1.66694,-0.94708 -2.52566,-1.43497 1.2502,0 2.5004,0 3.7885,0 0.41673,-1.89418 0.83346,-3.78837 1.26282,-5.73995 -11.00044,-1.73697 -21.69711,-3.26543 -32.83363,-2.86997 -0.83347,1.42064 -1.66694,2.84127 -2.52566,4.30496 -0.83347,0 -1.66694,0 -2.52566,0 -1.25021,0.47355 -2.50041,0.94709 -3.7885,1.43498 0,-0.94709 0,-1.89418 0,-2.86997 -1.66694,1.89419 -3.33387,3.78837 -5.05132,5.73995 0,1.89418 0,3.78836 0,5.73993 -0.83347,0 -1.66694,0 -2.52567,0 0,-0.94709 0,-1.89418 0,-2.86997 -0.83346,-0.47354 -1.66694,-0.94709 -2.52567,-1.43499 1.25021,-1.89417 2.50042,-3.78835 3.7885,-5.73993 -0.83347,-0.47354 -1.66694,-0.94709 -2.52566,-1.43499 -0.41674,0.9471 -0.83347,1.89419 -1.26284,2.86997 -1.2502,-0.94709 -2.5004,-1.89418 -3.78849,-2.86997 -0.41673,1.89419 -0.83347,3.78837 -1.26283,5.73995 -0.83347,1.42063 -1.66694,2.84127 -2.52566,4.30495 0.41673,1.89418 0.83346,3.78837 1.26282,5.73995 -2.10471,2.39164 -4.20943,4.78328 -6.31416,7.17492 -0.83346,0.47354 -1.66693,0.94709 -2.52566,1.43498 -0.83347,0 -1.66693,0 -2.52566,0 -0.83347,0.94709 -1.66694,1.89419 -2.52566,2.86997 0.83347,0.47354 1.66693,0.94709 2.52566,1.43499 -0.41674,2.36773 -0.83347,4.73545 -1.26284,7.17492 -0.41673,-1.89418 -0.83346,-3.78836 -1.26282,-5.73993 -1.66695,-0.47355 -3.33388,-0.94709 -5.05134,-1.43499 -1.25019,0.47354 -2.5004,0.94709 -3.78848,1.43499 -0.41674,-2.84127 -0.83348,-5.68254 -1.26284,-8.60992 0.41673,-2.36773 0.83347,-4.73545 1.26284,-7.17492 -1.25021,-0.47355 -2.50042,-0.94709 -3.7885,-1.43499 0,4.73545 0,9.47091 0,14.34985 -1.25021,-0.47354 -2.50041,-0.94709 -3.7885,-1.43498 0,-1.42064 0,-2.84128 0,-4.30496 -0.41674,0 -0.83347,0 -1.26283,0 0,1.89418 0,3.78836 0,5.73994 -2.08368,0 -4.16734,0 -6.31416,0 -1.66694,2.84127 -3.33387,5.68254 -5.05133,8.60991 -0.41674,-1.89418 -0.83346,-3.78836 -1.26283,-5.73993 0.41674,-1.42064 0.83347,-2.84127 1.26283,-4.30496 -1.66693,0 -3.33388,0 -5.05133,0 -1.2502,2.84127 -1.2502,2.84127 -2.52566,5.73994 0,-1.89419 0,-3.78836 0,-5.73994 -0.83347,0 -1.66694,0 -2.52566,0 0,-0.9471 0,-1.89419 0,-2.86997 0.83346,-0.94709 1.66693,-1.89418 2.52566,-2.86997 0,-0.94709 0,-1.89418 0,-2.86998 -1.66694,0.47355 -3.33387,0.9471 -5.05133,1.43499 -0.41673,2.84127 -0.83346,5.68254 -1.26283,8.60991 0.41674,2.36773 0.83347,4.73545 1.26283,7.17493 -0.83346,0.94709 -1.66693,1.89418 -2.52566,2.86997 -1.66694,-0.47355 -3.33388,-0.94709 -5.05133,-1.43499 -0.83347,0.47355 -1.66694,0.94709 -2.52566,1.43499 -0.41674,-1.42063 -0.83347,-2.84127 -1.26284,-4.30495 0.83348,0 1.66695,0 2.52567,0 -0.83346,-2.36773 -1.66694,-4.73546 -2.52567,-7.17493 -0.41673,0.94708 -0.83347,1.89417 -1.26282,2.86997 -0.83347,0 -1.66694,0 -2.52567,0 0,0.94709 0,1.89418 0,2.86997 -2.08367,-0.47355 -4.16735,-0.94709 -6.31416,-1.43498 0,0.94709 0,1.89418 0,2.86997 -0.83347,-0.47355 -1.66694,-0.9471 -2.52567,-1.43499 0.41674,-1.42064 0.83347,-2.84127 1.26284,-4.30496 -1.34137,0.29412 -2.68274,0.58824 -4.06474,0.89126 -1.78414,0.38661 -3.5683,0.77321 -5.40651,1.17153 -1.75809,0.3829 -3.51619,0.76581 -5.32756,1.16032 -5.18062,1.03665 -10.26911,1.98369 -15.50916,2.51684 -4.31138,-0.43723 -4.31138,-0.43723 -8.36626,-1.25561 -5.205,-1.04376 -10.41403,-2.06198 -15.62754,-3.04935 0.41674,-1.42064 0.83346,-2.84127 1.26283,-4.30496 -2.08367,-0.94708 -4.16735,-1.89417 -6.31416,-2.86997 -4.41992,-3.58746 -4.41992,-3.58746 -8.83983,-8.60991 -1.25019,-2.19015 -2.5004,-4.38029 -3.78849,-6.63681 -0.83347,-2.5453 -1.66694,-5.0906 -2.52567,-7.71304 0.42976,-3.99554 0.42976,-3.99554 0.86821,-8.07179 0.13022,-3.01885 0.26045,-6.03771 0.39463,-9.14803 -2.74699,-8.06828 -6.3523,-15.44587 -10.10266,-22.95977 -1.27865,-2.86092 -2.5477,-5.72756 -3.7885,-8.60991 0.41674,-0.94709 0.83347,-1.89419 1.26284,-2.86997 2.79533,3.5501 5.59065,7.10019 8.38599,10.65027 2.60017,3.22858 5.30745,6.34489 8.03083,9.43953 C 96.15532,37.36744 91.45254,30.72594 85.79383,24.39475 80.32378,18.08033 76.29848,11.663 71.98161,4.30495 72.39834,2.88432 72.81508,1.46368 73.24445,0 c 4.28025,2.22344 8.47569,4.65828 12.62832,7.17493 7.7531,6.58098 14.93295,13.41109 21.46814,21.52478 3.48843,5.17774 6.79865,10.44962 10.10265,15.78484 8.43586,-0.90125 8.43586,-0.90125 16.83117,-2.18052 8.68563,-1.29145 17.36766,-1.21013 26.10511,-0.68946 5.30286,0.99782 9.99851,2.46983 15.15398,4.30496 1.66695,0.94709 3.33388,1.89417 5.05134,2.86997 2.5004,-0.47354 5.0008,-0.94709 7.57698,-1.43499 2.89109,-1.65926 2.89109,-1.65926 5.84061,-3.35204 7.23167,-4.07293 14.16737,-6.58193 21.9417,-9.0247 2.55249,-0.81761 5.105,-1.63521 7.73484,-2.47759 17.90597,-5.1538 35.96566,-7.48951 54.3807,-8.55386 2.03738,-0.11867 4.07475,-0.23724 6.17387,-0.35945 18.35597,-0.91683 35.66182,0.37875 53.85011,3.47046 12.46531,2.37043 24.64655,5.30793 36.65665,9.81506 4.10915,1.87222 4.10915,1.87222 9.79188,5.9081 1.04185,1.03588 2.08368,2.07177 3.15709,3.13904 0,1.89417 0,3.78836 0,5.73994 1.3023,-0.73992 2.60458,-1.47983 3.94634,-2.24217 1.61485,-0.68073 3.22969,-1.36144 4.89348,-2.06279 2.5004,0.47354 5.00082,0.94709 7.57699,1.43499 0.83346,0.94709 1.66693,1.89418 2.52566,2.86997 -0.41674,2.36773 -0.83347,4.73545 -1.26283,7.17493 -1.66694,0.47355 -3.33387,0.94709 -5.05132,1.43498 0,0.94709 0,1.89418 0,2.86998 2.5004,0.94709 5.0008,1.89417 7.57698,2.86996 1.22415,0.76951 2.44832,1.53902 3.70957,2.33185 1.27624,0.65113 2.5525,1.30225 3.86742,1.9731 4.73654,0.36082 4.73654,0.36082 8.83983,0 -0.34118,-3.35999 -0.7735,-6.70862 -1.26284,-10.04489 -1.2502,-2.84128 -1.2502,-2.84128 -2.52566,-5.73994 -4.08906,-3.28752 -4.08906,-3.28752 -8.83982,-5.73994 -2.50041,-0.47354 -5.00082,-0.94709 -7.57699,-1.43499 0,-0.94709 0,-1.89418 0,-2.86996 -2.50041,-0.94709 -5.00081,-1.89419 -7.57699,-2.86998 -2.88106,-1.55281 -5.74784,-3.14011 -8.60304,-4.75339 -8.3804,-4.43845 -16.66673,-8.11052 -25.57235,-10.94738 -10.30298,-2.51006 -20.68311,-3.67446 -31.16136,-4.85427 -7.77528,-0.95352 -15.36377,-2.29764 -23.06148,-3.83971 -0.41674,-3.31482 -0.83347,-6.62963 -1.26284,-10.04489 1.66694,-0.47355 3.33388,-0.94709 5.05134,-1.43499 2.91713,1.42064 5.83427,2.84127 8.83982,4.30496 0,0.94709 0,1.89418 0,2.86996 5.0008,0.71032 5.0008,0.71032 10.10265,1.43499 -2.91714,-0.94709 -5.83428,-1.89418 -8.83983,-2.86996 0.83347,-1.89418 1.66695,-3.78837 2.52567,-5.73995 5.54715,1.26067 10.31562,2.96975 15.62755,5.11214 10.79897,4.16999 21.69561,7.3781 32.7547,10.49333 15.97005,4.54033 31.19599,9.93711 46.33014,17.3992 2.45157,1.5871 2.45157,1.5871 4.95266,3.20628 1.69951,0.83611 3.399,1.67222 5.14999,2.53366 6.36974,0.47858 6.36974,0.47858 13.02296,0 4.49798,-0.10017 8.99871,-0.10949 13.49651,0 4.59257,1.0538 4.59257,1.0538 8.20841,2.51122 1.87531,1.06547 3.75061,2.13095 5.68274,3.22872 2.08367,1.89418 4.16735,3.78836 6.31416,5.73994 2.84137,4.39463 2.84137,4.39463 5.05133,8.60991 1.26283,4.30495 1.26283,4.30495 1.81532,9.59646 -0.18232,2.04216 -0.36464,4.08433 -0.55249,6.18837 -3.55171,6.36775 -3.55171,6.36775 -7.57699,11.47989 -1.87531,0.71031 -1.87531,0.71031 -3.7885,1.43499 -5.05132,0.44843 -5.05132,0.44843 -11.36548,0 -7.18236,-2.42155 -7.18236,-2.42155 -13.89115,-5.73995 -2.14879,-1.59822 -2.14879,-1.59822 -4.34099,-3.22872 -1.60182,-1.95337 -1.60182,-1.95337 -3.236,-3.94621 -2.99923,-5.73994 -2.99923,-5.73994 -5.05133,-11.47988 0,-2.36772 0,-4.73545 0,-7.17492 2.56091,1.85182 5.08124,3.77657 7.57699,5.73993 1.66694,1.89419 3.33388,3.78837 5.05133,5.73995 -2.91714,-5.209 -5.83429,-10.41799 -8.83983,-15.78484 -2.08367,-0.47354 -4.16734,-0.94709 -6.31416,-1.43498 -1.2502,0.47354 -2.5004,0.94708 -3.78849,1.43498 0.0419,7.38059 0.0419,7.38059 1.26283,15.78484 0.96369,2.27893 1.9274,4.55786 2.9203,6.90586 1.5367,1.98297 3.07342,3.96594 4.65669,6.009 3.66922,2.81318 7.28131,4.99252 11.32109,7.046 4.14974,1.8195 4.14974,1.8195 9.9892,2.90921 5.6328,0.27394 5.6328,0.27394 12.78617,-1.3453 1.25021,-0.47354 2.50041,-0.94709 3.7885,-1.43497 0.6251,1.42063 0.6251,1.42063 1.26283,2.86996 -0.83347,1.42064 -1.66694,2.84127 -2.52566,4.30496 -0.83347,0 -1.66694,0 -2.52567,0 0.6251,2.26414 0.6251,2.26414 1.26283,4.57402 0.41674,1.80538 0.83347,3.61077 1.26284,5.47088 0,2.36772 0,4.73544 0,7.17491 0.83346,0 1.66693,0 2.52566,0 -0.41673,-2.36772 -0.83347,-4.73544 -1.26283,-7.17491 -0.41674,-2.84127 -0.83347,-5.68254 -1.26283,-8.60992 0.83346,0.47355 1.66693,0.94709 2.52566,1.43499 0.41673,-3.31482 0.83347,-6.62963 1.26283,-10.04489 0.83347,0 1.66694,0 2.52567,0 0,9.94445 0,19.88889 0,30.13468 2.08367,-13.73281 4.16734,-27.46562 6.31415,-41.61457 7.577,2.86996 7.577,2.86996 11.36549,5.2915 3.7885,3.31841 3.7885,3.31841 7.81377,7.89243 3.55172,5.47088 3.55172,5.47088 5.91953,11.30051 1.20575,6.01127 1.79527,11.10216 1.97358,17.21982 z m -42.22595,-7.26461 c -1.46861,-5.57421 -1.46861,-5.57421 -3.78849,-10.0449 -1.2502,-1.42063 -2.50041,-2.84127 -3.7885,-4.30495 -1.2502,0 -2.5004,0 -3.78849,0 2.27726,6.83755 2.27726,6.83755 4.65669,11.74893 0.54696,1.8054 1.09393,3.61079 1.65747,5.47089 -0.24026,7.18899 -1.11177,13.64302 -2.60459,20.62791 -0.58603,2.5749 -0.58603,2.5749 -1.18391,5.20183 0,1.89417 0,3.78835 0,5.73994 0.83347,0 1.66694,0 2.52567,0 3.58465,-9.88223 3.58465,-9.88223 6.31415,-20.0898 0.42124,-6.9951 0.42124,-6.9951 0,-14.34985 z M 467.2478,66.00928 c -0.83347,-0.94709 -1.66694,-1.89418 -2.52566,-2.86997 -2.08367,0.47354 -4.16735,0.94708 -6.31416,1.43498 -0.83347,0.94709 -1.66694,1.89418 -2.52567,2.86997 -1.66693,-0.94709 -3.33387,-1.89418 -5.05132,-2.86997 0.41673,1.42064 0.83347,2.84127 1.26283,4.30496 2.08367,1.42064 4.16734,2.84127 6.31416,4.30495 2.50041,-0.47354 5.00081,-0.94708 7.57699,-1.43499 0.41673,-1.89417 0.83347,-3.78836 1.26283,-5.73993 z m -1.26283,14.34986 c -3.76823,-1.05498 -7.55994,-2.00512 -11.36549,-2.86998 -1.2502,0.47354 -2.5004,0.94709 -3.78849,1.43499 2.08367,0.94709 4.16734,1.89418 6.31416,2.86996 2.94502,0.10978 5.89548,0.13116 8.83982,0 0,-0.47354 0,-0.94709 0,-1.43497 z m -5.05133,-22.95978 c -2.5004,0 -5.00081,0 -7.57699,0 0.41673,0.94709 0.83347,1.89418 1.26283,2.86998 2.08368,0 4.16735,0 6.31416,0 0,-0.94709 0,-1.89418 0,-2.86998 z m -2.52566,101.88396 c -2.08367,-0.94709 -4.16735,-1.89418 -6.31416,-2.86997 -1.2502,0.47355 -2.50041,0.94709 -3.7885,1.43498 2.08368,0.94709 4.16735,1.89418 6.31416,2.86998 1.25021,-0.47355 2.50041,-0.94709 3.7885,-1.43499 z m -5.05133,17.21982 c -2.08367,-0.94709 -4.16734,-1.89418 -6.31416,-2.86997 -1.8753,1.7758 -1.8753,1.7758 -3.78849,3.58746 -6.83344,5.4355 -13.77732,9.43621 -21.27083,13.55388 -4.62991,2.60087 -9.05897,5.41049 -13.53598,8.32965 -14.43857,8.85062 -30.07874,14.89781 -45.40892,21.43088 -3.55353,1.52656 -7.08943,3.10598 -10.61938,4.70155 -12.0199,5.41393 -23.97102,9.01325 -36.71091,11.53593 -23.97123,4.31529 -47.71575,6.70639 -71.98143,7.17493 0.83348,0.94708 1.66695,1.89417 2.52567,2.86997 19.20607,2.85218 38.18523,4.00138 57.53716,2.52734 18.52002,-1.67882 36.94884,-3.86957 54.85488,-9.70227 19.09571,-6.51207 37.9948,-13.5333 55.5646,-24.39475 8.75368,-5.73234 16.94072,-11.88687 24.5463,-19.46198 5.17476,-5.71911 9.97233,-11.55824 14.60149,-17.84763 0,-0.47355 0,-0.94709 0,-1.43499 z M 450.83099,76.05417 c -3.7885,0 -3.7885,0 -3.7885,0 z m -16.41682,101.88396 c -8.12919,0.89394 -16.00382,2.3868 -23.9938,4.30495 0,0.47355 0,0.94709 0,1.43498 4.47118,0.36419 4.47118,0.36419 10.10265,0 4.6562,-1.32273 9.29407,-2.73782 13.89115,-4.30494 0,-0.47355 0,-0.9471 0,-1.43499 z m -15.15398,-68.8793 c -1.87531,-1.42062 -1.87531,-1.42062 -3.7885,-2.86997 0.41674,1.42064 0.83347,2.84127 1.26284,4.30496 0.83346,-0.47354 1.66693,-0.94709 2.52566,-1.43499 z m -15.15398,84.66413 c -2.52566,1.43499 -2.52566,1.43499 -2.52566,1.43499 z m -2.52566,1.43499 c -1.66694,0.47355 -3.33389,0.94709 -5.05134,1.43498 0.83348,0.47355 1.66695,0.94709 2.52567,1.43499 0.83347,-0.94709 1.66694,-1.89418 2.52567,-2.86997 z M 388.95223,83.2291 c -0.83347,0.94709 -1.66694,1.89418 -2.52567,2.86997 -1.99707,8.72814 -3.65447,16.87599 -4.03022,25.88579 0.004,4.76546 0.11341,9.53055 0.24173,14.29379 0.41673,0 0.83346,0 1.26282,0 0.15302,-1.85162 0.30604,-3.70326 0.46371,-5.61101 0.21161,-2.43987 0.42323,-4.87972 0.64127,-7.39353 0.20511,-2.41398 0.41022,-4.82794 0.62155,-7.31507 0.68752,-5.97502 1.82129,-11.24005 3.32481,-16.99 0,-1.89417 0,-3.78836 0,-5.73994 z m -3.7885,-31.56967 c -2.08368,-1.89418 -4.16735,-3.78836 -6.31416,-5.73994 -5.41015,-3.1861 -5.41015,-3.1861 -12.62832,-5.73994 -15.01785,-4.02744 -30.12962,-6.73992 -45.46195,-8.60992 -1.7874,-0.25527 -3.5748,-0.51054 -5.41636,-0.77354 -18.41009,-2.04689 -37.18248,-1.03462 -55.5498,1.1435 -16.58261,2.44382 -32.95174,5.29236 -48.79168,11.53033 -12.24225,5.01674 -12.24225,5.01674 -24.10234,11.05947 0,0.9471 0,1.89418 0,2.86997 2.91714,2.84127 5.83428,5.68254 8.83983,8.60992 2.96114,-0.34335 5.90765,-0.85323 8.83982,-1.43499 1.38043,-0.71032 2.76086,-1.42063 4.18313,-2.15247 1.5367,-0.71032 3.07341,-1.42064 4.65669,-2.15248 4.20456,-0.53087 8.41438,-1.0107 12.62832,-1.43499 3.75061,-1.42063 3.75061,-1.42063 7.577,-2.86997 3.01694,-0.37322 6.04552,-0.6366 9.0766,-0.80718 5.45902,-0.33596 10.82183,-0.74849 16.25896,-1.43499 18.0779,-1.51364 35.89936,-0.86638 53.90713,1.25561 1.4715,0.1688 2.94298,0.33759 4.45906,0.51149 6.53246,0.83588 12.76104,2.05235 19.13025,3.91119 4.99551,1.99406 9.28209,4.09028 13.82209,7.1469 1.23392,0.81021 2.46785,1.62041 3.73916,2.45517 1.11021,0.9064 2.22042,1.81279 3.36427,2.74664 1.66694,2.36773 3.33387,4.73546 5.05132,7.17494 0.93765,-2.48612 0.93765,-2.48612 1.89425,-5.02246 1.04183,-2.13095 2.08368,-4.2619 3.15709,-6.45743 4.89346,-6.27806 4.89346,-6.27806 10.10264,-11.47988 2.50042,-0.94708 5.00082,-1.89418 7.577,-2.86997 0,-0.47354 0,-0.94709 0,-1.43498 z m -1.26284,20.08978 c -1.8753,1.42064 -1.8753,1.42064 -3.78848,2.86998 0.41672,0.94709 0.83346,1.89418 1.26282,2.86997 0.83347,-1.89418 1.66694,-3.78836 2.52566,-5.73995 z m -12.62832,139.19357 c -2.52566,1.43499 -2.52566,1.43499 -2.52566,1.43499 z m -3.78848,1.43499 c -3.33388,0.47355 -6.66776,0.94709 -10.10266,1.43499 0,0.47355 0,0.94709 0,1.43498 3.33387,-0.47355 6.66775,-0.94709 10.10266,-1.43498 0,-0.47355 0,-0.94709 0,-1.43499 z m -10.10266,2.86997 c -3.7885,1.43499 -3.7885,1.43499 -3.7885,1.43499 z m -5.05133,1.43499 c -2.52567,1.43498 -2.52567,1.43498 -2.52567,1.43498 z m -8.83982,-104.75392 c -0.83347,0.94709 -1.66694,1.89418 -2.52567,2.86997 0,2.84127 0,5.68254 0,8.60991 0.83347,0 1.66694,0 2.52567,0 0,-3.78836 0,-7.57672 0,-11.47988 z m 0,107.62389 c -3.7885,1.43498 -3.7885,1.43498 -3.7885,1.43498 z m -7.577,-134.88861 c -2.52566,1.43498 -2.52566,1.43498 -2.52566,1.43498 z m -3.78849,2.86997 c -0.83347,-0.47355 -1.66694,-0.9471 -2.52567,-1.43499 -0.41673,-1.42063 -0.83347,-2.84127 -1.26283,-4.30496 -4.09619,-2.37155 -4.09619,-2.37155 -8.83982,-4.30495 -2.08367,0.47354 -4.16735,0.94709 -6.31416,1.43499 -1.2502,3.55157 -1.2502,3.55157 -2.52567,7.17492 0,2.36772 0,4.73545 0,7.17493 -1.25019,0 -2.5004,0 -3.78848,0 0.41672,1.42063 0.83346,2.84127 1.26282,4.30496 1.25021,0.47354 2.50041,0.94708 3.7885,1.43498 0.48933,3.33627 0.90618,6.68697 1.26283,10.04489 -0.41673,0.9471 -0.83346,1.89419 -1.26283,2.86998 1.66693,-0.9471 3.33387,-1.89419 5.05132,-2.86998 2.06961,-2.3751 4.06553,-4.83488 5.99845,-7.3543 1.77113,-2.30853 3.54225,-4.61706 5.36704,-6.99554 0,-0.94709 0,-1.89418 0,-2.86998 1.25021,-0.47355 2.50041,-0.94709 3.7885,-1.43498 0,-0.94709 0,-1.89419 0,-2.86997 z m -7.57699,137.75858 c -5.05133,1.43499 -5.05133,1.43499 -5.05133,1.43499 z M 323.28496,63.13931 c -2.91713,-0.94709 -5.83427,-1.89419 -8.83982,-2.86997 -0.6251,4.2619 -0.6251,4.2619 -1.26283,8.60991 1.66694,0.94709 3.33388,1.89418 5.05133,2.86996 1.66693,0 3.33388,0 5.05132,0 0,-2.84127 0,-5.68253 0,-8.6099 z m 0,186.54807 c -11.87959,-0.15416 -23.53481,0.0912 -35.35928,1.435 0,0.47354 0,0.94709 0,1.43498 12.98855,1.39378 12.98855,1.39378 25.9867,0.89125 3.14326,-0.66853 6.26263,-1.4801 9.37258,-2.32623 0,-0.47356 0,-0.9471 0,-1.435 z m -3.78849,-22.95975 c -2.08367,0 -4.16735,0 -6.31416,0 0,0.47354 0,0.94708 0,1.43498 2.08367,0 4.16734,0 6.31416,0 0,-0.47354 0,-0.94709 0,-1.43498 z m -6.31416,1.43498 c -2.08367,0 -4.16734,0 -6.31415,0 0,0.47354 0,0.94709 0,1.43498 2.08366,0 4.16733,0 6.31415,0 0,-0.47354 0,-0.94709 0,-1.43498 z M 311.91948,61.70432 c -0.41674,-0.47355 -0.83347,-0.94709 -1.26284,-1.43498 -2.91713,0 -5.83427,0 -8.83982,0 0.41674,2.36773 0.83347,4.73545 1.26284,7.17492 2.5004,0.47355 5.0008,0.94709 7.57698,1.43499 0.41674,-2.36773 0.83348,-4.73545 1.26284,-7.17493 z m -1.26284,44.48454 c -1.25019,0 -2.5004,0 -3.78848,0 0.83346,2.84127 1.66693,5.68254 2.52566,8.60992 0.41673,0 0.83346,0 1.26282,0 0,-2.84128 0,-5.68255 0,-8.60992 z m -1.26282,8.60992 c -2.52566,1.43498 -2.52566,1.43498 -2.52566,1.43498 z m -2.52566,114.79881 c -9.9424,0.66457 -19.78953,1.50384 -29.67656,2.86998 -13.64539,1.80673 -27.31919,2.34371 -41.04203,2.86996 0,0.47355 0,0.9471 0,1.43499 21.83108,0.5441 42.78435,-0.63221 64.40443,-4.30495 2.08366,-0.47355 4.16734,-0.94709 6.31416,-1.43499 0,-0.47355 0,-0.94709 0,-1.43499 z M 300.554,58.83435 c -4.16735,0 -8.3347,0 -12.62832,0 0.41673,2.84127 0.83347,5.68255 1.26282,8.60991 3.75061,0 7.50122,0 11.3655,0 0,-2.84127 0,-5.68254 0,-8.60991 z m -13.89116,0 c -2.91714,0 -5.83428,0 -8.83982,0 0,2.36773 0,4.73546 0,7.17493 0.41673,0.47355 0.83347,0.94709 1.26283,1.43498 2.50041,0 5.00081,0 7.57699,0 0,-2.84127 0,-5.68254 0,-8.60991 z m -11.36548,0 c -7.50123,0.47354 -15.00245,0.94709 -22.73098,1.43499 -0.41674,2.36773 -0.83346,4.73545 -1.26283,7.17492 0,-1.89418 0,-3.78836 0,-5.73994 -2.50041,0 -5.00082,0 -7.577,0 0,1.42064 0,2.84127 0,4.30496 -0.83347,-0.94709 -1.66693,-1.89418 -2.52566,-2.86997 -4.78599,0.15995 -9.17045,0.56541 -13.89114,1.43498 -8.49856,2.58291 -16.86384,5.61836 -25.25664,8.60991 -5.59434,1.8479 -11.19389,3.67314 -16.79666,5.4877 -4.66413,1.68457 -9.02827,3.77044 -13.51131,5.99219 -2.50041,0.94709 -5.00082,1.89418 -7.577,2.86997 0,3.31481 0,6.62963 0,10.0449 6.77495,-0.9789 13.32465,-2.51465 19.96853,-4.30496 2.82518,-0.75472 2.82518,-0.75472 5.70741,-1.52467 1.52857,-0.44397 3.05714,-0.88791 4.63203,-1.3453 0.83347,-0.47355 1.66694,-0.94709 2.52566,-1.43499 0,-3.31481 0,-6.62963 0,-10.04489 0.62511,4.2619 0.62511,4.2619 1.26284,8.60991 2.5004,-0.9471 5.00081,-1.89418 7.57699,-2.86997 -0.62511,-3.5516 -0.62511,-3.5516 -1.26283,-7.17493 0.6251,0.71032 0.6251,0.71032 1.26283,1.43499 0.6251,2.84127 0.6251,2.84127 1.26283,5.73994 5.62591,-2.13096 5.62591,-2.13096 11.36548,-4.30495 -0.83346,-2.36773 -1.66693,-4.73546 -2.52566,-7.17494 0.83347,0.94709 1.66694,1.89419 2.52566,2.86997 0.62511,2.13096 0.62511,2.13096 1.26284,4.30497 2.08368,-0.47355 4.16735,-0.94709 6.31416,-1.43499 0.83347,-0.47355 1.66694,-0.94709 2.52566,-1.43499 0,-1.89418 0,-3.78836 0,-5.73995 0.6251,2.13096 0.6251,2.13096 1.26284,4.30496 7.32798,-1.38783 14.63323,-2.88024 21.9417,-4.39463 2.51017,-0.51979 5.02034,-1.03958 7.60659,-1.57513 1.91762,-0.39771 3.83526,-0.7954 5.811,-1.20516 0.41673,-1.89418 0.83347,-3.78836 1.26283,-5.73994 0.41674,1.89418 0.83347,3.78835 1.26283,5.73994 2.50041,-0.47355 5.00082,-0.94709 7.577,-1.43499 0,-2.84127 0,-5.68254 0,-8.60991 z M 244.98939,83.2291 c -0.83347,0.47355 -1.66694,0.94709 -2.52566,1.43499 0.83346,0.47355 1.66693,0.94709 2.52566,1.43498 0,-0.94709 0,-1.89418 0,-2.86997 z m -1.26284,5.73994 c -1.25019,0.47355 -2.5004,0.9471 -3.78849,1.43499 0.41673,1.42063 0.83347,2.84127 1.26283,4.30496 0.83347,0 1.66695,0 2.52566,0 0,-1.89418 0,-3.78837 0,-5.73995 z m -2.52566,-4.30495 c -0.83347,0 -1.66694,0 -2.52566,0 0,1.42063 0,2.84127 0,4.30495 0.83347,0 1.66693,0 2.52566,0 0,-1.42063 0,-2.84127 0,-4.30495 z m 0,10.0449 c -0.83347,0.47354 -1.66694,0.94709 -2.52566,1.43498 0.83347,0.47354 1.66693,0.94709 2.52566,1.43499 0,-0.9471 0,-1.89419 0,-2.86997 z m -3.7885,-8.60992 c -0.83347,-0.47355 -1.66693,-0.94709 -2.52566,-1.43498 -2.5004,4.26191 -2.5004,4.26191 -5.05132,8.60991 0.83347,2.36773 1.66693,4.73545 2.52566,7.17492 1.25021,-1.89419 2.5004,-3.78836 3.7885,-5.73993 0,-1.42064 0,-2.84127 0,-4.30496 0.41673,-1.42064 0.83346,-2.84128 1.26282,-4.30496 z m -1.26282,88.96909 c -0.41674,-1.42063 -0.83347,-2.84128 -1.26284,-4.30496 -1.2502,0 -2.5004,0 -3.7885,0 0.41674,2.36773 0.83348,4.73546 1.26284,7.17493 0.83347,0.94708 1.66693,1.89418 2.52566,2.86997 0.41674,-1.89418 0.83347,-3.78836 1.26284,-5.73994 z m -5.05134,-77.4892 c -1.25019,1.42063 -2.5004,2.84127 -3.78848,4.30495 0.41672,0.94709 0.83346,1.89418 1.26282,2.86997 1.25021,-3.55159 1.25021,-3.55159 2.52566,-7.17492 z m -17.67964,0 c -2.08367,0.94708 -4.16735,1.89417 -6.31416,2.86996 0,0.47355 0,0.94709 0,1.43499 2.08368,0 4.16735,0 6.31416,0 0,-1.42064 0,-2.84127 0,-4.30495 z m -23.9938,-27.26472 c -1.77113,-2.07177 -3.54225,-4.14353 -5.36704,-6.27806 -0.99626,-1.16537 -1.99251,-2.33074 -3.01897,-3.53142 -1.47484,-1.53717 -1.47484,-1.53717 -2.97948,-3.1054 -1.66694,-0.94709 -3.33387,-1.89418 -5.05133,-2.86997 -1.2502,0.47355 -2.50041,0.9471 -3.78849,1.43499 5.00081,5.20901 10.00162,10.418 15.15398,15.78483 1.66693,-0.47354 3.33388,-0.94709 5.05133,-1.43497 z m 0,38.74459 c -2.52567,1.43499 -2.52567,1.43499 -2.52567,1.43499 z m -1.26284,-7.17492 c -1.2502,2.84127 -1.2502,2.84127 -2.52566,5.73994 0.83347,0 1.66694,0 2.52566,0 0,-1.89418 0,-3.78835 0,-5.73994 z m -6.31416,-27.26472 c -0.83836,-0.95264 -1.67671,-1.90528 -2.54046,-2.88679 -5.46735,-6.21267 -10.93467,-12.42532 -16.40201,-18.63799 -0.83347,0.47354 -1.66694,0.94709 -2.52567,1.43498 6.25102,7.10319 12.50203,14.20636 18.94248,21.52478 0.83347,-0.47354 1.66694,-0.94709 2.52566,-1.43498 z m -5.05133,2.86997 c -2.08366,-0.94709 -4.16734,-1.89418 -6.31416,-2.86997 0.83348,1.89418 1.66695,3.78836 2.52567,5.73995 1.2502,-0.47355 2.50041,-0.94709 3.78849,-1.43499 0,-0.47355 0,-0.94709 0,-1.43499 z m -6.31416,-5.73995 c -1.66693,-1.89417 -3.33387,-3.78836 -5.05132,-5.73993 0.83347,2.36773 1.66693,4.73545 2.52566,7.17492 0.83347,0.47355 1.66695,0.94709 2.52566,1.43499 0,-0.94709 0,-1.89418 0,-2.86998 z m -2.52566,8.60993 c -2.5004,-2.13097 -2.5004,-2.13097 -5.05132,-4.30497 0.83346,1.89418 1.66693,3.78836 2.52566,5.73994 0.83347,0.47355 1.66693,0.9471 2.52566,1.43499 0,-0.94709 0,-1.89418 0,-2.86996 z m -2.52566,-17.21983 c -2.50041,-2.13096 -2.50041,-2.13096 -5.05133,-4.30496 0.83347,1.89418 1.66694,3.78836 2.52567,5.73994 0.83346,0.47355 1.66693,0.94709 2.52566,1.43499 0,-0.94709 0,-1.89418 0,-2.86997 z m -1.26284,20.08979 c -2.91713,-3.31481 -5.83427,-6.62963 -8.83982,-10.0449 0,1.42064 0,2.84127 0,4.30496 2.08368,2.36772 4.16735,4.73545 6.31416,7.17493 0.83347,-0.47355 1.66694,-0.94709 2.52566,-1.43499 z m -1.26282,7.17493 c -0.83347,-0.47355 -1.66694,-0.94709 -2.52567,-1.43499 -4.64225,0.87919 -9.27419,1.8329 -13.89115,2.86997 -0.41674,0.94709 -0.83347,1.89418 -1.26284,2.86998 -1.66693,-0.94709 -3.33387,-1.89418 -5.05132,-2.86998 0,2.36773 0,4.73545 0,7.17493 -0.83347,0 -1.66693,0 -2.52566,0 -0.41674,-2.84127 -0.83347,-5.68253 -1.26284,-8.60991 0.83347,-0.47355 1.66694,-0.94709 2.52567,-1.43499 -3.65598,-4.26978 -7.15003,-7.88729 -11.36549,-11.47988 0.59905,1.98296 1.19812,3.96594 1.81533,6.009 1.97317,6.90587 1.97317,6.90587 3.236,14.0808 -7.57699,-1.43499 -7.57699,-1.43499 -11.36549,-2.86997 -0.83346,-2.36773 -1.66693,-4.73546 -2.52566,-7.17493 -0.65115,-1.71661 -1.3023,-3.4332 -1.97317,-5.20183 -1.81533,-6.27806 -1.81533,-6.27806 -2.68352,-14.88797 -0.13025,-2.36772 -0.26047,-4.73545 -0.39464,-7.17492 -1.66694,0.94709 -3.33387,1.89418 -5.05133,2.86997 -1.2502,1.42063 -2.5004,2.84127 -3.78849,4.30495 0.0461,6.01055 0.0461,6.01055 1.26283,12.91488 3.25603,6.20876 3.25603,6.20876 7.57699,11.47987 3.70745,4.13024 3.70745,4.13024 7.57699,7.17493 2.08368,0.9471 4.16734,1.89418 6.31416,2.86997 7.58436,0.56188 15.14058,0.38967 22.73098,0 7.30136,-1.21832 7.30136,-1.21832 12.62832,-2.86997 0,-2.84127 0,-5.68253 0,-8.60991 z m -1.26284,-18.65482 c -2.5004,-2.36772 -5.00082,-4.73544 -7.57698,-7.17492 0.83346,1.89418 1.66693,3.78837 2.52566,5.73995 1.66693,1.42063 3.33387,2.84127 5.05132,4.30495 0,-0.94709 0,-1.89418 0,-2.86998 z m -2.52566,-15.78483 c -3.7885,0 -3.7885,0 -3.7885,0 z m -2.52566,4.30496 c -1.66694,-1.89418 -3.33388,-3.78836 -5.05134,-5.73995 -0.83346,0.47355 -1.66693,0.9471 -2.52566,1.43499 1.66694,1.89419 3.33388,3.78836 5.05134,5.73994 0.83346,-0.47355 1.66693,-0.94709 2.52566,-1.43498 z M 154.0655,83.2291 c -0.83347,-0.47354 -1.66695,-0.94709 -2.52568,-1.43499 0,0.9471 0,1.89418 0,2.86998 0.83348,-0.47355 1.66695,-0.94709 2.52568,-1.43499 z m -1.26284,-14.34985 c -0.83347,-0.47355 -1.66694,-0.94709 -2.52566,-1.43499 0.41673,1.42063 0.83347,2.84127 1.26282,4.30495 0.41674,-0.94709 0.83348,-1.89417 1.26284,-2.86996 z m -2.52566,8.60991 c -0.83347,-0.47354 -1.66694,-0.94709 -2.52566,-1.43499 0.41673,1.42064 0.83346,2.84127 1.26282,4.30497 0.41674,-0.94709 0.83347,-1.89419 1.26284,-2.86998 z m -1.26284,-14.34985 c -1.66693,-1.89419 -3.33387,-3.78836 -5.05132,-5.73995 -0.83347,0.47355 -1.66694,0.94709 -2.52566,1.43499 2.5004,2.36773 5.0008,4.73546 7.57698,7.17493 0,-0.94709 0,-1.89418 0,-2.86997 z m -1.26282,18.6548 c -1.95908,-2.5849 -3.93567,-5.15267 -5.91953,-7.71304 -1.64823,-2.1476 -1.64823,-2.1476 -3.32974,-4.33859 -1.11509,-1.23195 -2.23019,-2.46391 -3.37905,-3.7332 -2.08368,-0.94709 -4.16735,-1.89418 -6.31416,-2.86997 2.08366,2.84127 4.16734,5.68254 6.31416,8.6099 0.83347,0 1.66693,0 2.52566,0 0.83347,1.89419 1.66694,3.78837 2.52566,5.73995 2.4681,2.46801 4.98794,4.87248 7.577,7.17493 0,-0.94709 0,-1.89418 0,-2.86998 z m -1.26284,-10.0449 c -0.83347,-0.47354 -1.66694,-0.94709 -2.52566,-1.43497 0.41673,1.42063 0.83347,2.84127 1.26282,4.30495 0.41674,-0.94709 0.83347,-1.89418 1.26284,-2.86998 z m 0,15.78485 c -0.83347,-0.47355 -1.66694,-0.9471 -2.52566,-1.43499 0,0.94709 0,1.89418 0,2.86997 0.83347,-0.47354 1.66693,-0.94708 2.52566,-1.43498 z M 142.7,84.66409 c -2.08367,-2.36772 -4.16734,-4.73545 -6.31416,-7.17493 -0.83346,0 -1.66693,0 -2.52566,0 -0.41674,-1.42064 -0.83347,-2.84127 -1.26283,-4.30496 -3.75061,-2.84127 -7.50123,-5.68254 -11.36549,-8.60991 -0.83346,0.47355 -1.66693,0.94709 -2.52566,1.43499 4.36328,4.9581 8.6787,9.04475 13.57544,13.27361 2.21716,1.92008 2.21716,1.92008 4.4791,3.87894 1.1265,0.96928 2.25298,1.93858 3.4136,2.93724 0.83347,-0.47355 1.66694,-0.94709 2.52566,-1.43498 z m 0,136.32359 c -0.83347,0 -1.66693,0 -2.52566,0 0.41674,0.94709 0.83347,1.89418 1.26284,2.86998 0.41673,-0.94709 0.83346,-1.89418 1.26282,-2.86998 z M 140.17434,64.57429 c -1.66693,-0.94709 -3.33387,-1.89418 -5.05132,-2.86997 0.83347,1.42064 1.66693,2.84127 2.52566,4.30496 0.83347,-0.47354 1.66694,-0.94709 2.52566,-1.43499 z m 0,159.28337 c -5.13601,2.69754 -5.13601,2.69754 -9.51071,6.71528 -2.48086,2.26968 -2.48086,2.26968 -5.01186,4.58523 -1.65391,1.50573 -3.30783,3.01143 -5.01186,4.5628 -4.68935,4.31541 -4.68935,4.31541 -9.5107,9.96641 2.08367,-0.94709 4.16735,-1.89418 6.31416,-2.86996 7.85481,-6.8391 15.33355,-14.05291 22.73097,-21.52478 0,-0.47355 0,-0.94709 0,-1.43498 z M 128.80886,61.70432 c -1.66695,-0.47355 -3.33388,-0.94709 -5.05134,-1.43498 1.66694,0.94709 3.33389,1.89418 5.05134,2.86997 0,-0.47355 0,-0.94709 0,-1.43499 z m -29.04514,117.6688 c -0.6251,-1.42065 -0.6251,-1.42065 -1.26283,-2.86998 -1.25021,0.47355 -2.50041,0.9471 -3.7885,1.43499 -2.08373,3.49368 -4.16093,6.99241 -6.23524,10.49332 -1.1574,1.94783 -2.31482,3.89564 -3.50731,5.9025 -0.95231,1.69256 -1.90461,3.38511 -2.88577,5.12896 -0.41673,1.42063 -0.83347,2.84127 -1.26282,4.30495 0.83346,0 1.66693,0 2.52566,0 0.65114,-1.15428 1.3023,-2.30853 1.97317,-3.49778 4.39076,-7.29209 8.93453,-14.63685 14.44364,-20.89696 z m -7.57699,-10.0449 c -1.25021,1.89417 -2.50041,3.78836 -3.7885,5.73994 -0.83347,2.84127 -1.66694,5.68254 -2.52566,8.6099 1.25021,-1.42063 2.5004,-2.84126 3.7885,-4.30494 0.83346,-1.89419 1.66693,-3.78837 2.52566,-5.73995 0,-1.42063 0,-2.84128 0,-4.30495 z m -6.31416,-1.43499 c -0.83347,0.47354 -1.66694,0.94709 -2.52566,1.43499 0.41673,0.94709 0.83346,1.89417 1.26282,2.86996 0.41674,-1.42063 0.83348,-2.84127 1.26284,-4.30495 z M 70.71859,93.274 c -6.25103,0 -12.50204,0 -18.94248,0 0,0.47354 0,0.94709 0,1.43499 6.25101,0.94709 12.50204,1.89418 18.94248,2.86997 0,-1.42064 0,-2.84127 0,-4.30496 z m 0,8.60991 c -0.41674,-0.47355 -0.83347,-0.94709 -1.26284,-1.43499 -2.08367,0 -4.16734,0 -6.31416,0 1.66694,1.42063 3.33388,2.84127 5.05134,4.30496 0.83346,0 1.66693,0 2.52566,0 0,-0.94709 0,-1.89418 0,-2.86997 z m -7.577,-2.86997 c -5.05132,1.43498 -5.05132,1.43498 -5.05132,1.43498 z m -8.83982,-1.43498 c -2.08367,0 -4.16735,0 -6.31416,0 0,0.47354 0,0.94708 0,1.43498 2.08368,0 4.16734,0 6.31416,0 0,-0.47354 0,-0.94709 0,-1.43498 z M 25.25664,86.09907 c -2.52566,1.43499 -2.52566,1.43499 -2.52566,1.43499 z m -5.05133,1.43499 c -2.08367,0 -4.16735,0 -6.31416,0 0,0.47354 0,0.94709 0,1.43498 2.08367,0 4.16734,0 6.31416,0 0,-0.47354 0,-0.94708 0,-1.43498 z"
     style="fill:#ffffff;stroke-width:1.34616"
     id="path4" />
</svg>
